<svg xmlns="http://www.w3.org/2000/svg" version="1.0" width="577.000000pt" height="612.000000pt" viewBox="0 0 577.000000 612.000000" preserveAspectRatio="xMidYMid meet">

<g transform="translate(0.000000,612.000000) scale(0.100000,-0.100000)" fill="#00A8C6" stroke="none">
<path d="M2662 6109 c-264 -23 -569 -100 -817 -206 -204 -87 -459 -241 -645 -389 -113 -91 -318 -296 -413 -414 -305 -383 -503 -843 -579 -1345 -10 -67 -13 -230 -13 -645 0 -478 3 -569 17 -658 73 -433 205 -774 433 -1117 109 -164 193 -264 349 -420 254 -252 535 -442 856 -578 839 -356 1805 -267 2560 238 171 114 273 198 421 345 224 223 377 436 519 725 144 289 228 573 265 890 21 182 21 996 0 1175 -94 807 -532 1511 -1220 1966 -506 334 -1121 487 -1733 433z m489 -229 c857 -86 1611 -608 1993 -1380 197 -397 281 -809 255 -1249 -36 -618 -286 -1171 -728 -1611 -188 -187 -343 -304 -566 -427 -495 -274 -1089 -367 -1659 -262 -484 90 -946 336 -1301 693 -632 635 -874 1541 -644 2406 84 315 248 638 463 910 81 102 292 311 396 392 262 203 568 359 875 447 102 29 307 69 410 79 128 13 385 14 506 2z m-2483 -4074 l-3 -50 -51 119 c-73 170 -74 183 -4 76 57 -88 61 -97 58 -145z m4567 130 c-19 -48 -42 -100 -50 -114 l-14 -27 -1 44 c0 35 9 58 47 117 25 41 48 72 50 71 2 -2 -13 -43 -32 -91z m-307 -558 l-53 -73 -3 104 -3 104 53 56 53 56 3 -87 3 -87 -53 -73z m-3958 10 c0 -54 -3 -98 -8 -98 -4 0 -31 31 -60 70 l-52 70 0 92 0 93 60 -65 59 -65 1 -97z m3720 -177 l0 -119 -82 -75 c-46 -41 -98 -87 -115 -102 l-33 -27 0 139 1 138 107 82 c59 45 110 82 115 82 4 1 7 -53 7 -118z m-3357 -31 l47 -33 0 -134 c0 -157 15 -154 -135 -23 l-95 83 0 124 0 124 68 -54 c37 -29 88 -68 115 -87z m2947 -278 l0 -148 -77 -46 c-43 -25 -97 -55 -120 -67 l-43 -21 0 153 0 154 48 20 c26 11 79 39 117 61 39 23 71 41 73 41 1 1 2 -66 2 -147z m-2585 71 l115 -58 0 -152 c0 -84 -2 -153 -5 -153 -10 0 -67 31 -152 82 l-83 49 0 145 c0 79 2 144 5 144 3 0 57 -26 120 -57z m2155 -287 l0 -155 -52 -19 c-43 -15 -145 -49 -235 -77 -10 -3 -13 33 -13 158 l0 163 72 18 c40 10 101 29 138 42 36 12 71 23 78 23 9 1 12 -36 12 -153z m-1705 97 c66 -19 126 -37 133 -39 9 -2 12 -43 12 -159 0 -141 -2 -155 -17 -155 -10 0 -76 20 -148 43 l-130 43 -3 158 c-2 148 -1 158 15 151 10 -3 72 -22 138 -42z m466 -92 c62 -7 138 -14 167 -17 l52 -5 0 -160 0 -159 -37 0 c-21 0 -96 7 -168 15 -71 8 -136 15 -142 15 -10 0 -13 40 -13 166 0 132 3 165 13 161 7 -3 65 -10 128 -16z m759 -140 c0 -156 0 -159 -22 -164 -40 -10 -257 -37 -299 -37 l-39 0 0 165 0 165 48 1 c26 0 92 6 147 13 55 7 115 14 133 15 l32 1 0 -159z" fill="#00A8C6"/>
<path d="M2635 5460 c-898 -138 -1599 -831 -1750 -1730 -23 -133 -31 -449 -15 -559 40 -272 96 -463 199 -676 343 -708 1027 -1156 1807 -1182 263 -9 476 21 724 103 304 101 560 257 794 484 245 238 422 516 526 827 255 762 64 1580 -500 2143 -323 323 -722 524 -1172 590 -175 26 -443 26 -613 0z m559 -305 c636 -83 1175 -478 1456 -1067 92 -192 148 -402 171 -633 14 -147 7 -267 -25 -428 -76 -375 -268 -724 -545 -989 -267 -256 -570 -417 -934 -494 -167 -35 -458 -44 -626 -20 -639 94 -1169 480 -1446 1051 -102 212 -152 384 -181 628 -14 120 -15 159 -5 262 36 373 177 714 417 1011 299 369 735 614 1213 679 133 18 367 18 505 0z" fill="#00A8C6"/>
<path d="M2246 4497 c-22 -12 -49 -38 -60 -57 -21 -35 -21 -48 -26 -1064 l-5 -1029 -47 -14 c-35 -10 -52 -21 -63 -43 -24 -47 -19 -95 14 -132 l29 -33 771 -3 c848 -3 813 -5 846 58 34 65 3 133 -70 152 l-45 12 0 603 0 603 23 0 c36 -1 101 -35 130 -70 61 -72 60 -69 66 -515 7 -456 5 -444 77 -503 81 -67 196 -39 252 63 15 26 18 81 22 410 l5 380 28 3 27 3 0 122 c1 121 1 122 30 155 24 26 37 32 70 32 l40 0 0 118 c0 64 -3 141 -7 170 -6 58 -2 55 -65 35 -13 -4 -18 0 -18 15 0 27 -29 44 -52 31 -9 -5 -19 -6 -21 -2 -3 5 4 63 14 131 15 101 22 128 43 153 32 38 32 40 1 69 l-25 23 -26 -24 c-42 -39 -51 -67 -74 -224 -11 -83 -23 -157 -26 -166 -2 -9 -22 -23 -44 -32 l-40 -15 0 -159 c0 -164 4 -183 42 -183 17 0 18 -25 18 -485 0 -540 1 -533 -66 -561 -29 -12 -39 -12 -68 0 -61 25 -61 21 -66 476 -5 414 -5 415 -29 460 -55 104 -124 161 -217 180 l-54 11 0 368 c0 365 0 368 -23 411 -16 30 -37 51 -67 67 l-43 23 -581 0 -581 0 -39 -23z m564 -274 c0 -3 -34 -69 -76 -145 -42 -77 -74 -141 -72 -144 3 -2 28 4 58 14 l53 17 18 75 c9 41 22 101 29 133 7 37 16 57 26 57 18 0 18 -29 0 -117 -8 -37 -17 -85 -20 -105 l-7 -38 61 0 c33 0 60 3 60 8 0 4 -9 53 -20 110 -24 122 -25 142 -6 142 10 0 21 -30 36 -97 41 -183 34 -170 92 -187 29 -8 54 -13 56 -11 2 2 -30 67 -72 144 -42 76 -76 142 -76 145 0 3 86 6 190 6 l190 0 0 -340 0 -340 -195 0 c-107 0 -195 3 -195 8 0 4 38 77 85 162 l84 155 -29 12 c-16 7 -44 14 -62 15 l-32 3 -27 -140 c-14 -77 -29 -157 -33 -177 -4 -23 -13 -38 -21 -38 -18 0 -19 -16 10 180 14 91 25 171 25 177 0 9 -19 13 -60 13 -41 0 -60 -4 -60 -12 0 -7 12 -85 25 -173 29 -188 29 -185 11 -185 -16 0 -16 0 -52 203 l-28 158 -35 -6 c-20 -4 -47 -12 -62 -18 l-27 -12 84 -154 c46 -85 84 -158 84 -163 0 -5 -91 -7 -202 -6 l-203 3 -3 338 -2 337 200 0 c110 0 200 -3 200 -7z" fill="#00A8C6"/>
</g>
</svg>